<svg id="Layer_1" data-name="Layer 1" xmlns="http://www.w3.org/2000/svg" viewBox="0 0 632.63 584.4"><defs><style>.cls-1{fill:#faf392;}.cls-2{font-size:72.13px;fill:#231f20;font-family:KaushanScript-Regular, Kaushan Script;letter-spacing:-0.01em;}.cls-3{letter-spacing:0.01em;}.cls-4{letter-spacing:-0.01em;}.cls-5{letter-spacing:0.01em;}.cls-6{letter-spacing:-0.01em;}.cls-7{letter-spacing:0em;}.cls-8{letter-spacing:0.01em;}.cls-9{fill:#39b54a;}.cls-10{fill:#098041;}.cls-11{fill:#088040;}.cls-12{fill:#009444;}.cls-13{fill:#0e723b;}.cls-14{fill:#059e49;}.cls-15{fill:#a4d7b8;}.cls-16{fill:#02a04a;}.cls-17{fill:#006838;}.cls-18{fill:#fff;}.cls-19{fill:#62bd68;}.cls-20{fill:#aed095;}.cls-21{fill:#dfefe4;}.cls-22{fill:#e59565;}.cls-23{fill:#aecf94;}.cls-24{fill:#f2f9f4;}.cls-25{fill:#f7faee;}.cls-26{fill:#f8faee;}.cls-27{fill:#f6f6f6;}.cls-28{fill:#8dc63f;}.cls-29{fill:#e9e9e9;}.cls-30{fill:#56755e;}.cls-31{fill:#05592e;}.cls-32{fill:#418740;}.cls-33{fill:#aed196;}.cls-34{fill:#0e9b4b;}.cls-35{fill:#da9e60;}.cls-36{fill:#e69665;}.cls-37{fill:#b58b59;}.cls-38{fill:#d99e60;}.cls-39{fill:#cdddcc;}</style></defs><rect class="cls-1" x="70.58" width="512.84" height="512.84" rx="252.13"/><text class="cls-2" transform="translate(188.48 278.15)">M<tspan class="cls-3" x="67.01" y="0">y </tspan><tspan class="cls-4" x="120.9" y="0">P</tspan><tspan class="cls-5" x="166.7" y="0">e</tspan><tspan class="cls-6" x="196.56" y="0">r</tspan><tspan class="cls-3" x="225.2" y="0">sonal</tspan><tspan class="cls-7"><tspan x="0" y="86.56">J</tspan><tspan class="cls-3" x="36.86" y="86.56">ung</tspan><tspan class="cls-8" x="146.07" y="86.56">l</tspan><tspan class="cls-3" x="163.53" y="86.56">e Garden</tspan></tspan></text><polygon class="cls-9" points="296.21 97.56 292.83 98.02 289.71 95.22 290.88 91.97 295.76 87.81 301.35 79.87 304.6 72.46 305.97 65.7 306.16 60.3 306.52 57.61 309.54 55.42 310.52 60.3 310.19 66.87 309.09 73.76 307.66 81.95 304.99 87.22 301.48 91.58 296.21 97.56"/><polygon class="cls-10" points="303.85 95.71 304.99 91.13 309.68 80.69 338.11 63.16 357.63 55.75 377.38 52.38 394.94 51.65 405.74 53.72 433.63 67.63 450.67 82.42 457.14 95.3 433.04 74.17 415.67 63.94 391.53 58.2 361.42 62.93 342.39 70.35 314.68 87.81 303.85 95.71"/><path d="M369.44,87.22a15.82,15.82,0,0,0-3.35,3.12c-6.11,8.45-15.3,11.51-24.74,13.69-8,1.85-16.07,1.63-24.39.94-8-.67-16.53-.26-24.59,3.21-5.28,2.28-11.39,3-17.21,3.56a206.44,206.44,0,0,0-27.82,4.42,3.62,3.62,0,0,1-1.15-5.09L268.53,99l1.19,1.18a2.4,2.4,0,0,1-.66.91l-.36.51.4-.48c1.57-.46,3,.48,4.93-.57,6-3.21,12.49-5.45,18.71-8.24,8.58-3.84,17.47-7,25.07-12.86,4.59-3.56,9.29-7.46,14.22-10,9.93-5.18,20.73-8.59,32.53-5.89,4.14.95,8.49,1.15,12.36,3.25,2.71-8.7,1.24-12-6-15.08-3.49-1.47-7.36-2.1-10.18-5.13-.83-.9-2.89-.84-4.39-.88-3.34-.07-6.71.41-10,0-3.73-.41-5.45,3.92-9.07,3.34-.19-.27-.38-.53-.58-.79.06-2.73-.34-3.34,1.48-3.81,9.56-2.42,21.52-2.84,30.45,3,4,2.62,8.5,4.28,11.79,8.16,2.73,3.22,4.07,6.28,2.64,10.57l-6.64,5c-.35,4-.31,8.13-1.14,12.08-1.55,7.36-5.63,13.5-10.53,19.1-.84,1-1.87,1.75-2.72,2.71-1.52,1.72-2.1,3.59-.21,5.41s3.69.57,4.83-.57c4.25-4.28,8.9-8.31,10.21-14.72,5-17.08,3-21.47,2.14-28.65,2-.91,3.5-.46,3.52.91.06,4.4,1.44,15.41-1.07,20.36-.65,1.29-.73,2.25,1.47,3.57.4.24.6.71.9,1.07-5,3-4.38,9.58-8.24,13.15a4.73,4.73,0,0,0-1.67,3.1,1.1,1.1,0,0,1-.17.58,2.94,2.94,0,0,1,.48-.45c.53-.48.81-1.52,2-2.82,4-1.71,18.27-12.57,22.25-14.27.3.34.82,1.44,1.13,1.78-3.91,4.86-19.89,16.5-25.75,18.79a24.88,24.88,0,0,0-10.6,7.32c-1.32,1.6-45.51,34.08-66.23,49.25-5.95,4.35-17.56,7.28-18.07,7.64.6.66,31.2,4.2,46.64-7.07,6.54-4.77,6.7-17.37,10.43-23.32,6.53-10.42,13.15-11.74,19.25-17.31,5.19-4.74,17.4-8.91,23.68-11.71,4.65-2.06,10.64-2.19,15.84-1.56,3.38.41,6.5-.73,9.83,0,13.48,2.93,26.28,7.85,39.15,12.62,5.48,5.93,13.27,8.56,19.4,13.49a61.16,61.16,0,0,0,8.2,5.42c7.78,4.46,14.16,10.84,20.8,16.5s14.14,8.7,21.22,13c11.51,7,24,8,36.9,7.45,5.47-.23,9.54,1.08,11.45,6.86-3.35,3-7,3.62-11.74,3.45a93.57,93.57,0,0,0-28,3.81,64.59,64.59,0,0,0-14.06,5.39c-5.29,2.88-14.52,8.86-20.37,10.76-3.62,1.17-7.41,2.07-11.53,3.72a119.26,119.26,0,0,1-12.92,4.48c-7.42,2-14.94,3.62-22.37,5.56-8.33,2.18-16.54,1.41-25.11,2.75-20.3,3.16-36.33,1.07-56.31-3.18a53.1,53.1,0,0,1-7.36-2c-3.24-1.51-6.92-3-8.15-3.85-5.29-3.88-7.53-4.86-12-10.91-4.17-5.63-5.23-14.12-3.64-21.25.44-2,1.21-3.88,1.83-5.8-1.56-1.43-3-.48-4.34.1-7.95,3.34-16.52,4.53-24.63,7.68-7.15,2.77-15.64,2.31-23.61,2.29q-11.58,0-23.15,0c-1.95,0-4-.32-6.78,1.16,9.77,4.24,18.65,8.33,27.74,11.89a16.55,16.55,0,0,1,7,5.55c2.54,3.15,3.6,5.85,7.09,7.54,2.38,1.16,2.85,4,4.51,5.53.18,1.84.8,2.61-.13,2.62-3,0-8.11-1.59-10.32-4.14-4.37-5.06-8.4-5.91-13.26-10.65a14.91,14.91,0,0,0-6.59-3.79c-9.57-2.73-29.47-7.78-35.26-8.7-12.25-1.92-16.94-.23-28.53-1.08-8-.58-14.66,3.63-21.91,5.65a98.52,98.52,0,0,0-27.61,12.94,28.75,28.75,0,0,1-6.77,3.56c-3.38,1.12-5.57,3.5-7.8,6.65a183.92,183.92,0,0,1-13,16.94c-5.16,5.72-6.91,12.48-7.42,19.61-.42,5.86-1.82,11-5.65,15.52-2.13,2.51-2,2.59-1.57,8.35,5.8-4,8.22-11.66,15.56-13,4.49-6.16,11.75-6.66,18.19-8.71,6.71-2.14,13.73-1.61,20.43-1.56a6.14,6.14,0,0,0,3.05-4.49,9.56,9.56,0,0,1,4.1-6.2,16.67,16.67,0,0,0,4.3-4.36c7.45-11,18.65-16.51,30.4-16.2,4.26.11,11.18,2.44,15.21,4,6.58,2.56,10.33,8.58,15.06,14.71,6.12,7.92,12.69,15.36,14.64,25.47A136.94,136.94,0,0,1,250,320.8c-1.49,12.68-3,25.36-5.07,38a70.19,70.19,0,0,0-.66,18.65c.53,4.09,1.13,5.64-.26,6.73s-4.53-.13-4.69-.84c-1.24-5.81-6.8-8.55-8.52-13.88a7.36,7.36,0,0,0-2.95-4.38c-9.77-5.79-17.62-14.34-29.45-15.61a105,105,0,0,1-44.48-15.12c-7-4.34-14.22-10.81-15.77-19.81-2.24-13-2.78-25.43,11.68-33.07a11.71,11.71,0,0,0,5-4.69l1.86-.61c-1-.52-1.35.18-1.79.68a26.68,26.68,0,0,0-20.54,8.56c-3.3,3.43-7.84,5.57-11.52,8.82-8.65,7.65-11.5,17-9.29,28,1,5,2.38,9.91,3.57,14.85a44.43,44.43,0,0,0,6.15,13.7c5.1,7.82,7.54,13.35,12.17,21.47.25.45,2.26,3.77,2.49,4.21,3,5.54,3.89,10.4,8.11,15,5.73,6.19,8.43,14.56,9.05,23.17.19,2.65.6,5,3.49,7.41-5.08,1.46-3.76,8.7-10.22,8.76-3.15-4.36-3.28-9.94-6.14-14.43-3.14-4.91-4.16-11-7.38-15.91-3-4.59-4.77-7.87-6.14-10.46-2.66-5.05-3.45-9.82-7.45-13.66s-5.95-8.75-8.58-13.34a78.52,78.52,0,0,0-5.58-9,23.23,23.23,0,0,1-4.93-15.08A24.5,24.5,0,0,0,96,321.3c-2.45-2.91-3.43-7.29-4.39-11.17a21.8,21.8,0,0,0-6.72-11.68c-1.64-1.46-8.8-11.3-11.93-12.6,2.09.87,12.9,4.88,14.49,6.85,3.95,4.88,6.19,11.74,7.26,16.81.49,2.29,2.25,3.24,3.71,4.57,1.11-6.35,2.45-10.86-2.73-15s-9.79-7.66-12.74-9c-5.12-2.34-7.7-3.37-10-4.25s-3.32-3.69-3-6.57c2.89-1.93,5-.15,6.65,1.71,4.21,4.79,9.68,7.07,16.05,8.61-.77-6.71,1.47-13.07,2-19.67.32-4.26,3.41-8.25,4.92-12.49,4.14-11.57,11.56-21.42,16.84-32.39a3,3,0,0,1,.88-1.25c5.51-3.51,8.25-9.89,13-13.65,5.88-4.66,8-11,12.28-16.9-3.11-1.13-4.79,1-6.81,1.45-6.65,1.45-12.56.72-16.91-5.21l1-1.17a9.78,9.78,0,0,1,4.59,2.36c3.27,2.73,10.26,2.58,12.73-.25,3.61-4.14,7.18-8.26,8.46-14.07,1.36-6.16,2.59-12.57,6.76-17.73,5.18-6.42,8.69-13.67,11.5-21.39,1.44-3.94,3.39-7.82,8-9.5,2.43-.88,4.74-2.49,5.17-5.59-4,4-10.51,3.37-14.13,7.64-1.67,2-3.74,2.67-5.88,3.32-13.19,4-24.11,11.61-34,20.87-.38-.38-4.07,3-4.46,2.61a60.45,60.45,0,0,1,4.84-6.36c6.84-5.61,13.07-11.91,21.53-15.49,8.62-3.66,17.15-7.77,25.37-12.18,7.89-4.23,15.71-9.56,19.08-18.83a8.59,8.59,0,0,1,3.44-4.85c1.76-1.11,3.22-1.32,4.94-.18a3.73,3.73,0,0,1,1.69,4.63c-1.18,3.7-2.71,7.45-5.78,9.79-5.11,3.89-5.91,9.35-6.11,14.92-.29,8.19-.1,16.4,0,24.61.16,10.09-2.28,18-4.88,27.61a21,21,0,0,1-3.2,6,55.78,55.78,0,0,1-9.55,9c6.52-3.32,19-7.13,25.74-8.47,7.29-1.45,14.59-3.44,22-2.56,8.68,1,16.52-2.07,23.6-5.51,6.05-2.94,12.35-4.7,18.54-6.75s11.58-4.93,17.26-7.79c13.42-6.77,26.24-14.35,37.88-23.87a18.34,18.34,0,0,1,3.19-2.14c13.3-6.83,24.21-16.84,34.52-27.26,6.74-6.82,14.54-13.42,16.75-23.66C369.43,87.22,369.62,87.08,369.44,87.22ZM230.51,360l-1.61-1.49c-.21-.72-.18-1.75-.65-2.13-7.94-6.2-12-15.62-18.87-22.72-1.89-2-3.2-4.25-5.68-5.9-5.09-3.39-9.85-7.4-10.58-14.19-.15-1.34-1-2.23-1.64-3.32-4.08-7.33-9.34-13.69-14.6-20.2A53,53,0,0,0,162,277.36a34.33,34.33,0,0,1-5.26,3,31.67,31.67,0,0,0-14,11.35A23.72,23.72,0,0,0,142,316c5.48,10.05,14.49,17.08,25.05,21.34,11,4.44,22.93,6.16,34.31,9.69,8.74,2.72,18,3.59,24.7,10.85.55.59,2,.38,3,.54l1.49,1.61.45.41ZM164.12,145.81c-1.18.71-1.39,1.88-1.52,3.1-1.79,1.12-1.12,3.06-1.54,4.63-1.72,1.14-1.19,3-1.54,4.61L158,159.7c-8,2.39-6.35,10-8.74,15.38,3.71-4.72,4-11.24,8.66-15.46l1.56-1.55c1.75-1.12,1.68-2.85,1.53-4.6,1.77-1.12,1.42-3,1.55-4.63,1.36-.59,1.27-1.93,1.56-3.07l.35-.42Zm58.62,197.3-1.56-1.55a5.08,5.08,0,0,0-3.09-4.63c-.4-2.33-1.74-4.1-3.18-5.91-6.56-8.26-14.5-15.49-18.38-25.71-1-2.66-2.88-5.35-7.65-4.71a15.76,15.76,0,0,1,6.84,10.57c1.25,5.74,4.21,10.91,10,13.77a12.76,12.76,0,0,1,5.8,6c1.45,3.13,4,4.45,6.69,5.92a5.44,5.44,0,0,0,3.07,4.62l1.56,1.56c.22,1.18.18,2.48,1.54,3.09.27,3.83,3.44,4.77,6.17,6.14l.52.48-.6-.41c-.29-3.82-3.7-4.51-6.17-6.13C224.05,345,224,343.76,222.74,343.11Zm94.6-257.6c1.94-.85,3-2.11,4.78-4,7.15-1.2,13-4.71,18.55-9.22a16.73,16.73,0,0,1,5.7-3.47c3.06-.93,6.17-1.71,10.05-2.77A30.72,30.72,0,0,0,340,68.17c-7.2,2.82-12.78,8.12-18.82,12.54-2.11,2-1.42,1-3,2.88-.7.16-9.63,4.12-10.46,4.3C308.87,89,315.82,86.18,317.34,85.51Zm49,86.52c-1.58.22-3.28-.31-5.47,1.13,2.38-.14,4.08.46,5.4-1.22l6.6-.37C368.74,171,368.74,171,366.37,172ZM150.18,185.81c6.51-4.38,11.85-10.27,18.65-14.29,1-.62,2.36-1.62,2.59-2.66,1.3-5.84,4.93-11.1,4.12-17.51-.52-4.07-.2-8.57,2.41-11.64,3.69-4.32,2.71-8.62,2.27-13.88-2.32,1-3.72,2.12-4.47,3.69-3.36,7-6.83,14.06-9.76,21.28-1.64,4-3.14,8-5.56,11.67-4.73,7.19-9.7,14.36-10.17,23.43a1.93,1.93,0,0,0-.59.18c-.1.06-.13.25-.19.39Zm86.53,169.53.37,3.4c.62-1.26.87-2.47-.45-3.32-1.69-5.6-2.35-11.8-5.77-16.5-7.52-10.3-12.65-21.95-19.55-32.57-4.38-6.73-10.13-12.07-17.55-15.12a20.9,20.9,0,0,1-8.73-6c-3.27-4.18-7.78-4.59-12.07-6,6.92,5.24,12.66,11.73,19.64,16.88,3.82,2.82,7.69,6.9,8.76,12.28a6.27,6.27,0,0,0,2.43,3.77c6.22,5,9.89,12.14,14.61,18.27C224.65,338.59,232.09,346,236.71,355.34ZM102.33,323.07l-.4-.37.46.31c.55,4.55,1.65,9,2.48,13.51.78,4.21-.29,9.27,2.8,12.54,3.67,3.89,5.52,7.33,7.92,11.77,1.92,3.54,3.35,7.29,6.82,10,2.26,1.79,3,6.46,4.41,9.41,1.75,3.71,3,5.09,4.67,8.58,1.54,3.17,3.09,5.33,4.34,8.26,4.14,9.64,10.37,18.21,13.91,28.23,2.46-1.59,3.5-3.55,3.11-6-.63-4-2.27-6.56-3.27-10.5-.68-2.69-.53-4.47-2.65-7.88-5.28-8.52-9.8-16.49-12.39-25.56a3.14,3.14,0,0,0-.78-1.31c-5.4-5.52-7.46-13.14-12.07-19.1a20.89,20.89,0,0,1-4.06-7.2c-1.67-6.14-3.09-12.35-5-18.43-.78-2.54-.72-5.67-3.75-7.52C106.84,322.35,104.67,323.3,102.33,323.07ZM259.8,110.3a76.94,76.94,0,0,0,23.81-4,93.45,93.45,0,0,1,28.07-3.81c7.45,0,14.93.32,22.37-.12a41.61,41.61,0,0,0,22.08-7.77A48.44,48.44,0,0,0,369.18,81.1c2.34-3.56,3.88-6.21,2.39-10.1-2.11-2-4.69-1.88-7.26-2.17-9-1-16.28,2.73-23.57,7.27-9.3,5.78-19,10.9-29.64,13.88a34.7,34.7,0,0,0-9.25,3.64c-8.35,5.22-17.72,8.12-27.09,10.12-5.73,1.22-10.53,3.05-14.9,6.62-.74.17-.89.37-.42.52C259.5,110.89,259.68,110.5,259.8,110.3ZM337,176.63c-3.66-2.26-7.35-2.07-11.53-1.19-5.94,1.26-11,4.7-17.33,5.19-13.86,1.09-27.71,1-41.56.9a110.7,110.7,0,0,0-34.74,5.4c4.75,1.46,6.65,5.12,10.69,5,3.31-.08,4.82-2.06,9.43-1.61,5.06-.45,9.49.15,14.19-.29,3.07-.29,6.47-.31,9.33-.36,2,0,5-1.11,8.18-1,14,.55,27.43-3.12,40.8-6.73,1.87-.5,4.52-.49,5.42-2.52,1.55-3.53,4.4-2.87,7.16-2.88.4.91.5,2.33,1.63,2.4,6.71.36,13,3.14,19.66,3.46,9.26.44,18.26,2.3,27.23,4.38,5.16,1.19,9.94,3.35,14.83,5.33,7.83,3.17,16.75,2.32,24.57-1.66,4.4-2.24,7.76-2.69,11.77.67a17.06,17.06,0,0,0,10.74,3.7c2.56,0,5.14,0,7.69.28,7,.63,13.56-.07,19.48-4.72,3.37-2.65,7.67-4.13,12.18-2.5,2.51.91,5.07.8,7.61.77,11.23-.11,22.46-1,33.69.23a3.59,3.59,0,0,0,3.69-1.15,50.89,50.89,0,0,1-21.31-3.92c-5.83-2.46-11.65-3-17.93-2.79-7.71.25-17.8-1.18-22.75-3.77a8,8,0,0,0-3-.44c-7.73-.56-8.92-1.53-13.69-.79a22.91,22.91,0,0,1-14.82-2.17c-2.81-1.52-6.36-1.74-9.77-1.69-7.19.1-14.36-.12-21.5,1.1-3,.52-6.18,1-9.15-.12-6.56-2.4-13.4-1.66-19.75-.4a114.87,114.87,0,0,1-25.91,2.49A79.57,79.57,0,0,0,337,176.63Zm-171.22,93c8.4,6.4,17.55,9,25.93,13.18a58.28,58.28,0,0,0,15.65,5.37c1.66.3,3.64.58,4.63,2.41,2.38,4.38,6.07,7.88,6.78,13.4.61,4.7,2.7,9.23,3.25,14.1a10.38,10.38,0,0,0,4.74,7.63c2.33,1.5,3,3.93,4.35,6.06,4.42,7,5.17,15.86,11.2,22.12,2.7-11.51,3.56-23.26,4.62-34.9.93-10.18.53-20.53.08-30.78-.3-6.85-1-14.22-5.52-19.59-5.09-6.13-9.31-12.86-16-18.08-9.24-7.25-19.06-9.09-29.93-8.44-6.57.39-11.59,3.69-16.59,8.26A50.59,50.59,0,0,0,165.78,269.67Zm359.51-75.42a48.42,48.42,0,0,0-22.45-1.51,27.68,27.68,0,0,1-11.39-.16c-9-2.24-17,.89-23.24,7a15.87,15.87,0,0,1-13,5,32.37,32.37,0,0,0-15.16,2.34c-2.25.89-11,1.25-13.19.6-8.72-2.6-12.44-1.33-21,.6-3.07.7-5.22-.24-7.91-1.34-7.56-3.09-13.91-8.46-21.63-11.14-3.87-1.34-8.5-1.66-11.51-4-7.05-5.57-15.42-6.63-23.59-8.36-6.38-1.35-7.12,1.65-7.51,8.21a25,25,0,0,0,4.7,16.93c2.23,3.31,3.53,4.25,7.51,7.78,7.5,6.64,17.45,9.53,26.92,12,12.37,3.16,25.27,1.23,38.18,0,6.19-.6,11.65-3.05,17.6-4.08a216.41,216.41,0,0,0,32.44-8.18c8-2.66,16.55-6,24.76-8.08,6.18-1.54,12.85-2.67,18.14-5.89C510.85,197.68,518.39,196.81,525.29,194.25Zm-422.7,84.3c5.19-2.41,8.89-5,9-10.87a30,30,0,0,1,1.4-8.29c1.69-5.58,1.91-12.24,6.81-15.91,3.6-2.7,5-6.36,7.16-9.7s5.51-5.74,7.54-9.44c3.12-5.67,3.72-12.41,7.62-17.52,3.18-4.15,3.76-9.1,5.87-13.61-2.12,1.73-4.32,3.45-5.51,5.69-5.33,10.06-13.14,18-21.4,25.54-1.22,1.11-1.71,2.5-2.61,3.7-3.72,5-5.11,11.4-8.75,16.12-4.71,6.09-6.83,13-9.27,19.85A14.42,14.42,0,0,0,102.59,278.55Zm150.22-77c-2-2-11-6-13.68-6.93a45.19,45.19,0,0,1-8.25-3.92,26.72,26.72,0,0,0-19-4C204.4,188,197,189,189.76,191.93c-10.24,4.16-22.17,3.77-31.24,11.37-.73.61-1.91.67-2.88,1-7.73,2.67-14.14,6.64-15.47,15.9,4.54-.78,7-3.16,11-6.23,1.54-1.17,12.2-7.62,13.92-8.06,8-2,5.44-1.19,13.32-3.47,2.92-.84,7.51-3.86,10.74-4.19,5.86-.59,8.95-1.41,14.82-1.72C218.1,195.81,239.22,198.86,252.81,201.59Zm-3-23.9c3.72,2.4,7.5,1.58,11.16,1.62a6.83,6.83,0,0,0,4.83-1.45,28.27,28.27,0,0,1,10.79-4.35C288.89,171,295.46,165,305.83,158c11.93-8,23.44-17.57,35.3-25.73,2.81-1.93,5.22-4.46,8.25-6.39,4.47-2.84,9.25-5.64,12.43-10.78-3.32,1.13-5.54-.42-7.7-2.34-7.66,9.56-17.13,16.75-26.92,23.55-2.7,1.87-6.45,2.52-8.62,4.79-7.32,7.66-17.09,11.68-25.4,17.85-2.81,2.09-6.34,3.16-9.47,4.84-7.43,4-13.72,7.51-21.18,9.93C258.29,175.13,254,176.38,249.77,177.69Zm208.15,24.47c1.1-1.18,7.84-3.31,9.58-5.19-7,2.38-17.74,1-24.31.41a8.29,8.29,0,0,1-4.25-1.1c-4.57-3.2-9.56-3.15-14.76-2.08-4.5.92-9,1.74-13.59,2.36-8.55,1.18-15.91-3.07-23.56-5.66-7.31-2.49-14.55-4.76-22.46-4.21,6.57,2.14,11.75,7,18.58,8.62,3.41.8,6.49,2.85,9.43,5,5.39,4,11,6.78,18.26,4.35,5.82-1.94,11.86-2.64,18.13-.72,5.6,1.7,11-2.23,16.37-2.31A92.19,92.19,0,0,1,457.92,202.16Zm-274.14-62.9a26.07,26.07,0,0,0-5.68,17c.08,6.59-1.45,13.79-7.15,17.86-5.28,3.77-9.21,9.38-15.81,11.47-2.56.81-3.62,3.6-2.88,6.43.66,2.47,2.56,3.68,5,4.16a15,15,0,0,0,15.56-6c4.26-5.83,8.09-12.05,9.64-19.53C184.62,160.33,184,150,183.78,139.26ZM103.17,318.09c5.55-2.48,5.88-2.56,8.19-10.46,1.93-6.58,4.07-13.13,11-16.74,2.39-1.24,4.15-3.77,6-5.89.81-.95,1.18-2.35,2.45-2.85,9.31-3.69,17-10.88,27.39-12.4-6.72-.63-13.74-2.06-19.71,1.32-8.7,4.92-19,7.72-24.93,16.8a13.59,13.59,0,0,1-3.19,3.32c-6,4.5-7.69,11.25-9,18C100.79,311.86,100,315.31,103.17,318.09Zm-2.26-17.33A72.73,72.73,0,0,0,105,281c-2.49.71-4.58-1-6.86.06C97.6,287.28,97.76,293.26,100.91,300.76ZM421.32,170.21c-2.7-1.66-4.76-.91-6.7-1.2-1.26-.19-2.74-.12-3.33-1.45-2.25-5.11-9.91-1.27-10.42-1.27-3.63,0-5.48.89-8.38,1.53C400.36,170.3,411,169.69,421.32,170.21ZM146.77,205.4c4-2,5.29-4.55,7.16-6.44-.76-1.35-1.44-2.67-3.22-2.53C148.42,198.5,149.32,201.72,146.77,205.4Zm290.56-35.48a22.18,22.18,0,0,0-12.38,0Zm6.92,1.46c1.72,2.38,3.68,2,6.89,1.39C448.27,172.15,447.11,170,444.25,171.38ZM365.16,66.92c1.4-.24,1.45-.48.66-.81-1.37-.12-2.81-.7-4.83.56ZM382.09,169.7c-1.2-.83-2.39-.5-3.63-.11A3.73,3.73,0,0,0,382.09,169.7Zm-197.25-46a2.41,2.41,0,0,0-.14.59c0,.06.21.13.32.2a2.58,2.58,0,0,0,.13-.6C185.15,123.87,185,123.8,184.84,123.74ZM169,277.25l-.68.23.67.23Zm-20.85-96-.13-.59c-.09.17-.25.33-.27.51a1.51,1.51,0,0,0,.12.58Z" transform="translate(-69.88 -13.57)"/><path d="M525.93,107.36c0-.09-3.84-6.31-4-6.45-1.8-3.21-12.7-14.32-18.2-18.88-.12-.18-5.19-3-5.41-3.13-5.32-2.18-5.44-3.05-10.76-3.9-2.21-.35-4.12-1.5-6.24-2.65-4-2.17-6.83-4.24-10.71-5.28-11.76-3.16-23.38-.76-35,1.21-3.76.64-8,.51-11,2.9-2.58,2-5.49,2.51-8.28,3.64-6.53,2.67-13.84,3.66-19,9.28-1.24,1.33-11.8,7.8-13.71,8.51-.35-.38-1.43-1.65-1.77-2,2.84-3,14.63-10,17.93-11.71,12.75-6.41,25.82-11.64,40.13-14A196.47,196.47,0,0,1,501,64.6c5.29.79,10.44,2.54,15.73,3.38,8.26,1.32,14.61,7,22.43,9.3a2.83,2.83,0,0,1,1.26.85c6.73,7.83,16.8,11.33,24,18.65,2.73,2.78,6.7,4.14,10.16,6.7,3.66,2.71,5.38,5.13,9,6.91,7.32,3.59,13.06,4.29,20.75,6.15a57.16,57.16,0,0,0,5.84.65c10,.91,8.67,1.66,16.51-.37a7,7,0,0,1,2.42-.52c1.58,1.87,1.87,2.52-.35,3.8a11.35,11.35,0,0,1-3.62,1.2c-13.78,2.41-27.69,3.28-40.93-1.8A56.65,56.65,0,0,1,569,110.92c-2.5-2-4.24-3.76-7.06-5.12-6.63-3.18-12.58-8.88-18.53-13.34-5.35-4-12.39-5.13-17.85-8.77A33.22,33.22,0,0,0,512,78.55a9.31,9.31,0,0,1-2.79-.83c-1-.19-6-1.54-7.16-.53a29.55,29.55,0,0,1,5,2.15,100.16,100.16,0,0,1,7.39,7.77c5.48,6.31,10.53,13,15.46,19.78,1.52,2.09,3.31,5.21,5,7a59.75,59.75,0,0,0,7.64,6.71c5.72,4.65,12.49,7.56,16,7.67a10.83,10.83,0,0,0,3.32-.26c.22-.05,2.43-.52,3-.21-.5,1.89-1.19,3.75-3.53,3.95-2.72.23-5.3.71-8.11-1-9.17-5.46-17.4-12.07-25.8-18.59-7.39-5.73-13.7-12.34-20.29-18.78-3.75-3.67-9-4.8-13.43-7.33-3-1.75-6.17-3.2-9-5.43-4.93-3.84-11-5.1-17.29-5.61-11.94-1-23.55,1.12-35,3.93a89.57,89.57,0,0,0-36.32,18l-1-1a6.13,6.13,0,0,1,2.55-3.65c4.39-3.67,10.13-5,14.58-8.34,5.78-4.28,12.36-6,19-7.42,7.44-1.59,10.76-3.21,18.33-4.55,3.76-.66,8.61-1.17,13.19-1.49,2.24-.15,5.49.7,7.24.84s3.4,1.89,5.38,2.44c12.25,3.34,22.29,10.92,33.1,17.05,4.76,2.7,10.6,12.22,15.19,15M559.35,98c.49.72.92,1.68,2,.62L559.28,98c-.74-1.1-.73-1.85-2-2-3-3.19-4.46-5-7.27-6.44-3.19-1.61-6.71-3.06-8.58-6-3.09-4.77-5-4-9.85-5.56-2.16-.7-5.86-.52-8.22-1-.86-1-3-.67-4.83.29,1.57.2,2.87,1.15,4,1.28,11.1,6.54,22,10.28,32.76,17.5C556.06,97.25,558.14,97.81,559.35,98ZM477.09,65.06l2,.54c6.34,5.22,13.5,7.57,21.76,9.16,6.5,1.24,12.32,0,19.62-1.09-1.63-2.25-2.09-2.72-4.53-3.32-12.14-3-24.34-5.3-36.92-4.67" transform="translate(-69.88 -13.57)"/><path d="M677.35,310.07c-2.16,1.43-2.51,2.29-4.6,3.37-9.88,5.09-18.83,11.1-29.93,14.77a56.91,56.91,0,0,0-5.92,3.36c-3.13,1.86-5.18,4-9,5.67-.92-3.18-1.17-4.56-3.19-7.25a7.79,7.79,0,0,1,4.57-4.68c9-4,17.9-8.37,27.17-11.67a63.94,63.94,0,0,0,14.16-7.33c7.17-4.76,12.46-20.34,8-30.89a11.82,11.82,0,0,1-.58-2.2c-1.13-6.85-3.14-13.32-8.36-18.26,2-2.47,4.58-1.74,6.63-2.38,5.57-1.75,7.24-.8,8.86,5.13,2.14,7.85,3.77,15.82,2.85,24.11a82.27,82.27,0,0,0-.17,10.77c.08,4.34-1.86,8-4.06,11.42a14.47,14.47,0,0,1-4.52,4.18c-.36.26-.74.78-1,1A7,7,0,0,0,677.35,310.07Zm-11.48,3.74a35,35,0,0,0-5.14,1.35q-14,5.93-27.82,12.09c-1.18.52-3.32,0-3.14,3.58,12.69-4.9,25-9.59,36-17.08l2.05-.54C666.78,312.21,666.35,313.09,665.87,313.81Zm19.64-26.2c0-4.35.38-8.75-.1-13.05-.57-5.05-1.86-10-2.88-15-.78-3.79-2.91-5.1-7.4-3.36C680.9,266.07,685.11,276.23,685.51,287.61Z" transform="translate(-69.88 -13.57)"/><path d="M271.66,96a24.69,24.69,0,0,1,4-5.47c2.12-2.36,4.45-3.52,5.83-6,2.73-5,24.52-22.79,29.13-25.33.31.3-2.26,4.67-2,5-7.17,7.19-28.81,25.6-36,32.79Q272.19,96.46,271.66,96Z" transform="translate(-69.88 -13.57)"/><path d="M112.72,173.45c.42-5.85,4.37-17.1,9.15-20.59L123,154c-.25,1-.18,2.3-.79,2.78-3.65,2.88-5.07,7.09-7,11C114.88,167.49,113,173.71,112.72,173.45Z" transform="translate(-69.88 -13.57)"/><path d="M117.29,187.88c-6.21-6.22-5.41-13.46-3.07-20.92l1,.78c-.47,6.63-.82,13.24,3.21,19.12Z" transform="translate(-69.88 -13.57)"/><path d="M304.1,64c1.59-2,11.66-8,14.28-9.44.28.27,2.11,1.29,2.36,1.58-1.4,2.22-10.42,7.75-12.6,8.52C307.83,64.28,304.41,64.36,304.1,64Z" transform="translate(-69.88 -13.57)"/><path d="M317.18,55.17c.9-.66,17.62-9.19,20.09-10.43.16.2,4.52,2.39,4.68,2.6-2,2.18-21,8.6-23.11,9.49C318.6,56.54,317.43,55.46,317.18,55.17Z" transform="translate(-69.88 -13.57)"/><path d="M268.53,99l3.13-3q.52.48,1,.93a6,6,0,0,1-3,3.26Z" transform="translate(-69.88 -13.57)"/><path d="M118.81,189.49l-1.52-1.61,1.13-1,1.44,1.46Z" transform="translate(-69.88 -13.57)"/><path class="cls-11" d="M505,178.6c-6.29.38-12-1.86-19.42-1.78-5.92.29-8.55.77-12.76-2a20.75,20.75,0,0,0-11.68-3.22,22.31,22.31,0,0,1-9-1.76,31.76,31.76,0,0,0-13.43-2.69,19.67,19.67,0,0,1-3-.44c-6.86-1.21-8.45-1.6-13.72-2.51-2.56-.49-3.14-1.15-5.34-1.28-3.77-.22-5.09-.59-7.71-.39-8.82.68-17.75.21-26.11,4.3-2.84,1.4-6.53.47-9.86,1a330.71,330.71,0,0,1-34.37,4.1c-.9-1.06-2.14-1.77-2.54-2.95-1.23-3.64-1.56-4.36-1.13-8.73.81-8,5.59-12.67,8.51-17.24l4.13-3.93c2.76-2.25,3.78-.89,5.61-3.27,4.61-6,11.39-8.92,18-10.65,18.6-4.85,37.29-5.21,55.94,1,9.29,3.11,17.25,8.19,25.58,13,5.91,3.42,8.65,6.32,14.87,9.43,7.4,3.69,12.68,10.78,19.49,15.71,4.93,3.56,9.35,7.78,15.14,10.06,1.12.44,14.5,7.44,15.49,8.21Z" transform="translate(-69.88 -13.57)"/><path class="cls-12" d="M165.78,269.67A50.59,50.59,0,0,1,179,250.41c5-4.57,10-7.87,16.59-8.26,10.87-.65,20.69,1.19,29.93,8.44,6.65,5.22,10.87,12,16,18.08,4.47,5.37,5.22,12.74,5.52,19.59.45,10.25.85,20.6-.08,30.78-1.06,11.64-1.92,23.39-4.62,34.9-6-6.26-6.78-15.09-11.2-22.12-1.35-2.13-2-4.56-4.35-6.06a10.38,10.38,0,0,1-4.74-7.63c-.55-4.87-2.64-9.4-3.25-14.1-.71-5.52-4.4-9-6.78-13.4-1-1.83-3-2.11-4.63-2.41a58.28,58.28,0,0,1-15.65-5.37C183.33,278.68,174.18,276.07,165.78,269.67Z" transform="translate(-69.88 -13.57)"/><path class="cls-13" d="M525.29,194.25c-6.9,2.56-14.44,3.43-21.26,7.58a56.33,56.33,0,0,1-16.4,6.89c-8.2,2.06-16.78,5.42-24.76,8.07A214.94,214.94,0,0,1,430.43,225c-5.95,1-13.15,2.48-19.34,3.08-12.91,1.26-25.81,3.19-38.18,0-9.47-2.42-19.83-5.52-27.42-12.05a31.46,31.46,0,0,1-7-7.68,24.55,24.55,0,0,1-4.7-16.93c.39-6.56,1.13-9.56,7.51-8.21,8.17,1.73,16.54,2.79,23.59,8.36,3,2.38,7.64,2.7,11.51,4,7.72,2.68,14.07,8,21.63,11.14,2.69,1.1,4.84,2,7.91,1.34,8.52-1.93,12.24-3.2,21-.6,2.21.65,11.83-.16,14.08-1,5.36-2.09,8.54-2.24,14.27-1.9a15.87,15.87,0,0,0,13-5c6.23-6.13,14.22-9.26,23.24-7a27.68,27.68,0,0,0,11.39.16A48.42,48.42,0,0,1,525.29,194.25Z" transform="translate(-69.88 -13.57)"/><path class="cls-14" d="M234.61,369.6c-1.27-1.83-8.42-9.7-9-10.29-6.7-7.25-15.6-9.55-24.34-12.27-11.38-3.53-23.29-5.25-34.31-9.69C156.44,333.09,147.43,326.06,142,316a23.72,23.72,0,0,1,.78-24.27,31.67,31.67,0,0,1,14-11.35,34.33,34.33,0,0,0,5.26-3,53,53,0,0,1,14.91,12.69c5.26,6.51,10.52,12.87,14.6,20.2.61,1.09,1.49,2,1.64,3.32.73,6.79,5.49,10.8,10.58,14.19,2.48,1.65,3.79,3.95,5.68,5.9,6.88,7.1,10.93,16.52,18.87,22.72a11,11,0,0,1,2.3,2.93Z" transform="translate(-69.88 -13.57)"/><path class="cls-15" d="M337,176.63a79.57,79.57,0,0,1,15.25-1.35,114.87,114.87,0,0,0,25.91-2.49c6.35-1.26,13.19-2,19.75.4,3,1.09,6.15.64,9.15.12,7.14-1.22,14.31-1,21.5-1.1,3.41-.05,7,.17,9.77,1.69a22.91,22.91,0,0,0,14.82,2.17c4.77-.74,9.14.61,13.7.69a6.6,6.6,0,0,1,3,.54c3.93,2.35,15,4,22.75,3.77,6.28-.21,12.1.33,17.93,2.79,6.63,2.79,35.2,6,42.82,5.85-1.29,1.48-24.09-.65-25.2-.78-11.23-1.27-22.46-.34-33.69-.23-2.54,0-5.1.14-7.61-.77-4.51-1.63-8.81-.15-12.18,2.5-5.92,4.65-12.44,5.35-19.48,4.72-2.55-.23-5.13-.23-7.69-.28a17.06,17.06,0,0,1-10.74-3.7c-4-3.36-7.37-2.91-11.77-.67-7.82,4-16.74,4.83-24.57,1.66-4.89-2-9.67-4.14-14.83-5.33-9-2.08-18-3.94-27.23-4.38-6.66-.32-12.95-3.1-19.66-3.46-1.13-.07-1.23-1.49-1.63-2.4Z" transform="translate(-69.88 -13.57)"/><path class="cls-16" d="M294.22,75.33l1.57-1.53a14.41,14.41,0,0,1,2.75-2.32,52,52,0,0,1,4.95-3.76c1.57-1.69,2.1-2,4.65-3.07,2.18-.77,4-2.24,6.05-3.22a15.78,15.78,0,0,1,4.65-4.6c2.12-.89,4.37-1.5,6.09-3.17A11.56,11.56,0,0,1,327.87,52c2-1.05,1.62-.81,3.06-1.6,2.16-.75,1.6-.4,6.34-1.29,3.62.58,5.34-3.75,9.07-3.34,3.3.36,6.67-.12,10,0,1.5,0,3.56,0,4.39.88,2.82,3,6.69,3.66,10.18,5.13,7.24,3,8.71,6.38,6,15.08-3.87-2.1-8.22-2.3-12.36-3.25-11.8-2.7-22.6.71-32.53,5.89-4.93,2.58-9.63,6.48-14.22,10-7.6,5.89-16.49,9-25.07,12.86-6.22,2.79-12.73,5-18.71,8.24-2,1-3.36.11-4.93.57l0,0a2.4,2.4,0,0,0,.66-.91,6,6,0,0,0,3-3.26Z" transform="translate(-69.88 -13.57)"/><path class="cls-12" d="M119.86,188.32l-1.44-1.46c-4-5.88-3.68-12.49-3.21-19.12,2-3.89,2.08-4.54,4.05-8.74.5-1.06,3.52-4.07,3.77-5,9.93-9.26,20.85-16.89,34-20.87,2.14-.65,4.21-1.35,5.88-3.32,3.62-4.27,10.13-3.6,14.13-7.64-.43,3.1-2.74,4.71-5.17,5.59-4.62,1.68-6.57,5.56-8,9.5-2.81,7.72-6.32,15-11.5,21.39-4.17,5.16-5.4,11.57-6.76,17.73-1.28,5.81-4.85,9.93-8.46,14.07-2.47,2.83-9.46,3-12.73.25C123,189.46,121.64,189.5,119.86,188.32Z" transform="translate(-69.88 -13.57)"/><path class="cls-12" d="M259.86,110.36c4.37-3.57,9.17-5.4,14.9-6.62,9.37-2,18.74-4.9,27.09-10.12A34.7,34.7,0,0,1,311.1,90c10.62-3,20.34-8.1,29.64-13.88,7.29-4.54,14.61-8.27,23.57-7.27,2.57.29,5.15.16,7.26,2.17,1.49,3.89-.05,6.54-2.39,10.1a48.44,48.44,0,0,1-13.05,13.49,41.61,41.61,0,0,1-22.08,7.77c-7.44.44-14.92.15-22.37.12a93.45,93.45,0,0,0-28.07,3.81,76.94,76.94,0,0,1-23.81,4Z" transform="translate(-69.88 -13.57)"/><path class="cls-17" d="M102.33,323.07c2.34.23,4.51-.72,6.58-1.27,3,1.85,3,5,3.75,7.52,1.88,6.08,3.3,12.29,5,18.43a20.89,20.89,0,0,0,4.06,7.2c4.61,6,6.67,13.58,12.07,19.1a3.14,3.14,0,0,1,.78,1.31c2.59,9.07,8.38,17.2,12.39,25.56,1.24,2.58,1.79,2.26,2.89,5.74a90.84,90.84,0,0,1,3,12.64c.39,2.49-.65,4.45-3.11,6-3.54-10-9.77-18.59-13.91-28.23-1.25-2.93-3.2-5.27-4.89-8.36-1.48-2.74-2-4.51-4.12-8.48a70.6,70.6,0,0,0-4.76-8c-2.56-3.6-4.9-6.49-6.81-10-2.41-4.44-3.91-9.24-7.58-13.13-3.09-3.27-2-8.33-2.8-12.54-.83-4.49-1.93-9-2.48-13.51Z" transform="translate(-69.88 -13.57)"/><path class="cls-12" d="M102.59,278.55a14.42,14.42,0,0,1-2.17-14.44c2.44-6.89,4.56-13.76,9.27-19.85,3.64-4.72,5-11.15,8.75-16.12.9-1.2,1.39-2.59,2.61-3.7,8.26-7.55,16.07-15.48,21.4-25.54,1.19-2.24,3.39-4,5.51-5.69-2.11,4.51-2.69,9.46-5.87,13.61-3.9,5.11-4.5,11.85-7.62,17.52-2,3.7-5.35,6-7.54,9.44s-3.56,7-7.16,9.7c-4.9,3.67-5.12,10.33-6.81,15.91a30,30,0,0,0-1.4,8.29C111.48,273.56,107.78,276.14,102.59,278.55Z" transform="translate(-69.88 -13.57)"/><path class="cls-18" d="M270.76,207.41c-39.6-9.43-52.66-11.6-66.75-10.87-5.87.31-9,1.13-14.82,1.72-3.23.33-7.82,3.35-10.74,4.19-7.88,2.28-14.16,3.21-20.74,8.14-1.15.86-5,2.14-6.5,3.39-3.35,2.73-6.5,5.45-11,6.23,1.33-9.26,7.74-13.23,15.47-15.9,1-.34,2.15-.4,2.88-1,9.07-7.6,21-7.21,31.24-11.37,7.23-2.93,14.64-4,22.11-5.19a26.72,26.72,0,0,1,19,4,45.19,45.19,0,0,0,8.25,3.92C241.79,195.64,266,202.84,270.76,207.41Z" transform="translate(-69.88 -13.57)"/><path class="cls-12" d="M249.77,177.69c4.25-1.31,8.52-2.56,12.75-3.93,7.46-2.42,11.27-5,21.18-9.93,3-1.5,6.66-2.75,9.47-4.84,8.31-6.17,18.08-10.19,25.4-17.85,2.17-2.27,5.92-2.92,8.62-4.79,9.79-6.8,19.26-14,26.92-23.55,2.16,1.92,4.38,3.47,7.7,2.34-3.18,5.14-8,7.94-12.43,10.78a89.33,89.33,0,0,0-8.25,6.39c-18.08,14.66-23,17.39-34.5,25.83-10.44,7.65-19.34,13.23-30.08,15.37a69.16,69.16,0,0,0-10.79,4.35c-2.06,1-3.16,1.47-4.83,1.45C257.27,179.27,253.49,180.09,249.77,177.69Z" transform="translate(-69.88 -13.57)"/><path class="cls-17" d="M337,176.59c-2.76,0-5.61-.65-7.16,2.88-.9,2-3.55,2-5.42,2.52-13.37,3.61-25.67,6.83-39.74,7-2.82,0-6.53.68-9.24.68-2.86,0-6.86.23-9.93.52-4.7.44-9,0-13.26.09-4.94-.39-6.45,1.57-9.76,1.65-4,.09-5.94-3.57-10.69-5a110.7,110.7,0,0,1,34.74-5.4c13.85.08,27.7.19,41.56-.9,6.29-.49,11.39-3.93,17.33-5.19,4.18-.88,7.87-1.07,11.53,1.19Z" transform="translate(-69.88 -13.57)"/><path class="cls-19" d="M457.92,202.16c-5.53-.29-9-.36-14,.74-5.24,1.17-9.37,2.75-15,1-6.27-1.92-12.31-1.22-18.13.72-7.24,2.43-12.87-.39-18.26-4.35-2.94-2.16-6-4.21-9.43-5-6.83-1.6-12-6.48-18.58-8.62,7.91-.55,15.15,1.72,22.46,4.21,7.65,2.59,15,6.84,23.56,5.66,4.56-.62,9.09-1.44,13.59-2.36,5.2-1.07,10.19-1.12,14.76,2.08,1.27.89,3.33.44,4.86.49,6.87.2,17.47.69,24.44-.54C466.5,198.11,464.1,200.2,457.92,202.16Z" transform="translate(-69.88 -13.57)"/><path class="cls-10" d="M183.78,139.26c.25,10.73.84,21.07-1.32,31.45-1.55,7.48-5.38,13.7-9.64,19.53a15,15,0,0,1-15.56,6c-2.44-.48-4.34-1.69-5-4.16-.74-2.83.32-5.62,2.88-6.43,6.6-2.09,10.53-7.7,15.81-11.47,5.7-4.07,7.23-11.27,7.15-17.86A26.07,26.07,0,0,1,183.78,139.26Z" transform="translate(-69.88 -13.57)"/><path class="cls-15" d="M235.81,355.77c-4.62-9.36-11.16-17.18-17.41-25.31-4.72-6.13-8.39-13.3-14.61-18.27a6.27,6.27,0,0,1-2.43-3.77c-1.07-5.38-4.94-9.46-8.76-12.28-7-5.15-12.72-11.64-19.64-16.88,4.29,1.4,8.8,1.81,12.07,6a20.9,20.9,0,0,0,8.73,6c7.42,3,13.17,8.39,17.55,15.12,6.9,10.62,12,22.27,19.55,32.57,3.42,4.7,9.06,23.46,10.74,29.06Z" transform="translate(-69.88 -13.57)"/><path class="cls-12" d="M103.17,318.09c-3.14-2.78-2.38-6.23-1.84-8.94,1.32-6.71,3-13.46,9-18a13.59,13.59,0,0,0,3.19-3.32c6-9.08,16.23-11.88,24.93-16.8,6-3.38,13-1.95,19.71-1.32-10.37,1.52-18.08,8.71-27.39,12.4-1.27.5-1.64,1.9-2.45,2.85-1.84,2.12-3.6,4.65-6,5.89-6.91,3.61-9,10.16-11,16.74C109.05,315.53,108.72,315.61,103.17,318.09Z" transform="translate(-69.88 -13.57)"/><path class="cls-20" d="M150.26,185.9c.47-9.07,5.44-16.24,10.17-23.43,2.42-3.68,3.92-7.64,5.56-11.67,2.93-7.22,6.4-14.24,9.76-21.28.75-1.57,10.33-16.76,12.65-17.72.44,5.25-5.41,12.35-6.93,18.94-.9,3.93-6.45,16.54-5.93,20.61.81,6.41-2.82,11.67-4.12,17.51-.23,1-1.54,2-2.59,2.66-6.8,4-12.14,9.91-18.65,14.29Z" transform="translate(-69.88 -13.57)"/><path class="cls-21" d="M218.18,336.86c-2.67-1.47-5.24-2.79-6.69-5.92a12.76,12.76,0,0,0-5.8-6c-5.76-2.86-8.72-8-10-13.77a15.76,15.76,0,0,0-6.84-10.57c4.77-.64,6.64,2,7.65,4.71,3.88,10.22,11.82,17.45,18.38,25.71,1.44,1.81,2.78,3.58,3.18,5.91Z" transform="translate(-69.88 -13.57)"/><path class="cls-22" d="M75.34,284.46c4.2.68,15.59,11.24,20.55,14.47,5.17,3.38,4.14,10.3,3,16.66-1.46-1.34-5.67-4.36-6.16-6.66a30.49,30.49,0,0,0-6.85-13.5,28.59,28.59,0,0,0-4.84-4.72Z" transform="translate(-69.88 -13.57)"/><path class="cls-23" d="M281.14,99.87c4.91-1.12,20-8.7,33.6-16.59C326.27,76.6,336.69,69.46,340,68.17a30.72,30.72,0,0,1,16.43-2.08c-3.88,1.06-7,1.84-10.05,2.77a16.73,16.73,0,0,0-5.7,3.47c-5.54,4.51-20.05,13.64-27.2,14.84Z" transform="translate(-69.88 -13.57)"/><path class="cls-17" d="M100.91,300.76c-3.15-7.5-3.31-13.48-2.73-19.74,2.28-1.1,4.37.65,6.86-.06A72.73,72.73,0,0,1,100.91,300.76Z" transform="translate(-69.88 -13.57)"/><path class="cls-24" d="M443.94,170.45c-10.28-.52-42.47,2.05-51.45-2.63,2.9-.64,5.56-1.79,9.12-2.44,4.42-.81,6.83-.55,12.83.62,1.43.28,3.19.7,4.45.89C420.82,167.18,441.24,168.79,443.94,170.45Z" transform="translate(-69.88 -13.57)"/><path class="cls-25" d="M217.36,310c-1.1-.64-7.94-11.19-8.56-12.14-1.67-2.56-3-5.3-6.91-5.45,7.63-1.69,10.21,1.13,13,7.32Z" transform="translate(-69.88 -13.57)"/><path class="cls-18" d="M156,163.58c-6.87,7.91-4,13.39-9.27,21.13-.54-6.2,3.43-24.9,11.16-25.09Z" transform="translate(-69.88 -13.57)"/><path class="cls-20" d="M182.6,119.35c4-7.42,11.11-14.55,13-17.19-1.4,3-9.87,20.21-14.15,23.27Z" transform="translate(-69.88 -13.57)"/><path class="cls-18" d="M437.33,169.92H425A22.18,22.18,0,0,1,437.33,169.92Z" transform="translate(-69.88 -13.57)"/><path class="cls-26" d="M216.46,333.1c2.47,1.62,13.71,14.55,15.68,18.51l9.8,30.18c-5.71-6.36-10-23-10.45-23.6-6.25-8.95-20-26-20.07-27.62Z" transform="translate(-69.88 -13.57)"/><path class="cls-27" d="M432.94,168.39c2.86-1.38,21.51,3,24.12,5-2.93.25-12.41.7-18.4-2.42C436.1,169.67,431.29,169.6,432.94,168.39Z" transform="translate(-69.88 -13.57)"/><path class="cls-28" d="M365.16,66.92,361,66.67c2-1.26,3.46-.68,4.83-.56C366.61,66.44,366.56,66.68,365.16,66.92Z" transform="translate(-69.88 -13.57)"/><path class="cls-18" d="M290.12,224.82c3.4,3.58-9.82-6.55-12.76-9.38-5.43-5.22-20.88-11.49-23.28-12.24,1.84-.77,19.19,4.32,22.28,6.79l5.84,5.5Z" transform="translate(-69.88 -13.57)"/><path class="cls-27" d="M366.3,171.94c-1.32,1.68-3,1.08-5.4,1.22,2.19-1.44,3.89-.91,5.47-1.13Z" transform="translate(-69.88 -13.57)"/><path class="cls-27" d="M382.09,169.7a3.73,3.73,0,0,1-3.63-.11C379.7,169.2,380.89,168.87,382.09,169.7Z" transform="translate(-69.88 -13.57)"/><path class="cls-27" d="M366.37,172c2.37-1.05,2.37-1.05,6.53-.46l-6.6.37Z" transform="translate(-69.88 -13.57)"/><path class="cls-18" d="M161.23,155.22c-.28,2-2,3.21-3.75,5.24,0,0-2.47.17-2.46.14s1.45-1.39,1.46-1.4a35.88,35.88,0,0,0,2.7-3.86,6.15,6.15,0,0,1,1.88-1.8Z" transform="translate(-69.88 -13.57)"/><path class="cls-18" d="M162.48,150.66a13.71,13.71,0,0,1-1.26,4.63l-1-1.15c.94-1.7.56-4.11,2.35-5.23Z" transform="translate(-69.88 -13.57)"/><path class="cls-29" d="M184.84,123.74c.11.06.31.13.31.19a92.52,92.52,0,0,1-1.81,10.59c-.92,3.72-5.91,12-5.94,12.11s4-11.11,5-15.51a34.09,34.09,0,0,1,2.29-6.79A2.41,2.41,0,0,1,184.84,123.74Z" transform="translate(-69.88 -13.57)"/><polygon class="cls-18" points="99.08 263.68 99.07 264.14 98.4 263.92 99.08 263.68"/><path class="cls-18" d="M154.86,276.83c.44-.5.79-1.2,1.79-.68l-1.86.61Z" transform="translate(-69.88 -13.57)"/><path class="cls-18" d="M270.6,209l.08-.09" transform="translate(-69.88 -13.57)"/><path class="cls-18" d="M267.6,207.39l-.08.09" transform="translate(-69.88 -13.57)"/><path class="cls-18" d="M264.47,205.86l-.07.08" transform="translate(-69.88 -13.57)"/><path class="cls-18" d="M267.52,207.48l.08-.09" transform="translate(-69.88 -13.57)"/><path class="cls-18" d="M161.94,149.48a26.81,26.81,0,0,1,1.49-3.15l4.37-9.83,6.39-8.69a113.38,113.38,0,0,1-4.93,11.32c-3,6-6.32,11.07-6.82,12Z" transform="translate(-69.88 -13.57)"/><path class="cls-30" d="M168.74,205.33c-3.64,1.49-9,4-9.45,4.25-.78.45-18.59,14.94-20,11.5-1.23-3,6-13.22,6.94-13.37,1.38-.23,7.44-5.12,17.16-8.81,2.12-.81,10.83-3,20.53-5.76,10.6-3,22.36-6.65,26.85-7.12,10.74-1.11,15.73,2.51,15.87,2.56s-24.59,6.65-30.25,8.54c-1.65.55-7.51,1.47-9.49,2.36C181.81,201.76,168.74,205.33,168.74,205.33Z" transform="translate(-69.88 -13.57)"/><polygon class="cls-18" points="160.62 346.43 161.03 346.88 160.58 346.47 160.62 346.43"/><path class="cls-18" d="M259.8,110.3c-.12.2-.3.59-.36.58-.47-.15-.32-.35.42-.52Z" transform="translate(-69.88 -13.57)"/><path class="cls-18" d="M230.44,352.34l.6.41-.52-.48Z" transform="translate(-69.88 -13.57)"/><path class="cls-18" d="M150.18,185.81l-.7.66c.06-.14.09-.33.19-.39a1.93,1.93,0,0,1,.59-.18Z" transform="translate(-69.88 -13.57)"/><path class="cls-18" d="M102.39,323l-.46-.31.4.37Z" transform="translate(-69.88 -13.57)"/><polygon class="cls-18" points="199.22 87.54 198.82 88.02 199.18 87.51 199.22 87.54"/><path class="cls-17" d="M473.59,65c12.58-.63,30.22,2.34,42.36,5.31,2.44.6,2.9,1.07,4.53,3.32-11.54,2-12.1,1.63-18.71,1.69-8.59.07-22.25-8.87-23.32-9.08Z" transform="translate(-69.88 -13.57)"/><path class="cls-10" d="M552.26,95.49c-10.73-7.22-23-11.37-34.12-17.91l-1.95-.82c2.27,0,6-1.34,8.26-1.26,4.87.17,10.14,1,15.13,5.24,3.76,2,6.43,5.56,9.61,7.17,2.82,1.42,10.38,9.58,15.54,15.09Z" transform="translate(-69.88 -13.57)"/><path class="cls-18" d="M576.28,110.38l9.72,4.17c-5.13.11-7.65-1.52-9.64-4.24Z" transform="translate(-69.88 -13.57)"/><path class="cls-9" d="M579.44,114.32c-3.29-.72-10.12-6.86-10.58-7-.77-.32-17.57-11.9-20.18-14.07-.67-.55,13.07,4.72,13.69,5.28.94.85,9.13,6.38,17,11.66,3.53,2.38,13,5.89,21.39,7.69,9.57,2.06,22.43,2.19,22.47,2.31s-22.4,1.15-27.23.07c-1.56-.35-5.85-1.69-7.43-2A30,30,0,0,1,579.44,114.32Z" transform="translate(-69.88 -13.57)"/><path class="cls-30" d="M486.06,78.94A87.53,87.53,0,0,0,476,74.7c-.77-.31-14.2-7-16.81-9.13-.66-.55,9.7-.22,10.31.34.95.85,9,4.52,17.86,7.74,4.15,1.5,18.46,8.11,23.95,13.72,6.85,7,15.68,21.37,15.72,21.5s-20.23-18.64-24.8-21.64c-1.34-.88-4.22-2.94-5.79-3.29C491.37,82.81,486.06,78.94,486.06,78.94Z" transform="translate(-69.88 -13.57)"/><path class="cls-12" d="M685.42,295c-.07-1.79-1.47-2.94-1.27-5.43.38-4.7-1-12.07-1.78-14.62-1.85-6.35-3.77-12.8-7.24-18.75,4.49-1.74,6.62-.43,7.4,3.36,1,5,2.31,10,2.88,15C685.89,278.86,685.42,290.62,685.42,295Z" transform="translate(-69.88 -13.57)"/><path class="cls-17" d="M685.51,287.61c-.21.88.82,8.22-1.79,12.11a54.08,54.08,0,0,1-11,11c-3,1.89-7.09,4-10.62,6.06-13.82,8.05-30.21,15-31.88,16.3-1.38-2.86-2.66-4.17-1.48-4.7,9.24-4.09,21.44-9.17,30.74-13.12,1.62-.69,4.29-2.22,6.1-3a71.82,71.82,0,0,0,10.63-7.38c1-.93,4.66-8.24,5.79-9.87A53.26,53.26,0,0,0,685.51,287.61Z" transform="translate(-69.88 -13.57)"/><path class="cls-17" d="M168.82,205.3c-3.64,1.48-9.42,4.33-9.88,4.59-.78.45-18.59,15-20,11.51-1.23-3,6.2-13.46,7.1-13.61s5.68-4.61,16.93-8.82c4.73-1.77,11.58-3.23,18.34-5.12C183.5,193.24,168.82,205.3,168.82,205.3Z" transform="translate(-69.88 -13.57)"/><path class="cls-31" d="M475.28,472.46l-.22.08a6.34,6.34,0,0,0-2.63,1l-1.17,1a15.82,15.82,0,0,0-4,6.12c-1.52,5.39-3.74,11.08-4,16.84-.4,8.93-1.06,17.81-1.76,26.71-.38,4.84,1.31,8.93,2.17,14.25a40.44,40.44,0,0,1,.73,8.32c.42,8.14.65,7.15,3.36,16.33a26,26,0,0,1,1.32,8.82c-.61,2.19,0,5.41-2,1.15-1-1,.69-2.78-5.63-10.93a77.8,77.8,0,0,1-12.54-23.85c-1.13-3.43-4.19-5.44-5.63-8.89-6.37-15.3-5.17-30.26.5-45.3,5-6.82,11.78-11.85,18.7-16.43,3.3-2.19,8-1.52,12-.48,3.61.93,2.07,2,1.8,4l-.71.9" transform="translate(-69.88 -13.57)"/><path d="M514.06,510.19c.51,1.78-15.91,24.39-17,25.35-5.21,4.44-9.15,10-13.46,15.2-5.78,7-7.42,15-6.49,23.84.63,6,.89,12.13,2.19,18.09-.32.24-.65.47-1,.69-.69,1-1.31,1.55-2.2.42l-.79-2.36c-.12-1.8-1.16-3-1.57-4.72-1.23-5.19-8.05-9.72-8.58-16.47-.24-3.17,2.27-1.26,2-4.74s-3.34-12.6-2.73-18.73c.21-3-1.15-5.46-1.52-9.71-.46-5.18-2.21-11.55-1.83-16.38.7-8.9,1.08-14.47,1.47-23.39.26-5.76,3.11-11.53,4.68-17.19.69-2.45,7.59-10.88,11.57-9.78-6.64,5.56-12.65,23.49-12.59,32.86,0,6.55-.72,12.53,0,18.14.71,5.82,2.2,7.29,1.83,12.62-.22,3.14,1.18,7.55,1.12,10.51-.07,4.12-.45,16,2.74,19.45.23-5.82.48-8.57-.25-11.49-.88-3.59-.39-4.1-1-11.34,0,0-.81-1.19.17-5.72.93-4.29.06-10.82-.9-13.88-1.87-5.92-1-4.94-1.33-13.72,0-.87.85-10.28.89-11.29.16-4.46,1-3.57,2.11-7.86,2.63-5,3.25-11.12,7.3-15.67,1-.8.73-.67.21-.67a2.86,2.86,0,0,0-.89.25c-1.17.53-.89-.18-2.19.06-.15-1.92,2.18-4.45-1.43-5.38-4-1-8.72-1.71-12,.48-6.92,4.58-13.66,9.61-18.7,16.43-.38-.31-3.36,2.81-3.73,2.48a28.71,28.71,0,0,1,2.95-5.68c7.64-6.68,13.24-16.36,24.93-17.19,3.6-.25,7.14-.2,10.35,2.34,3.56-5.5,5.76-13.53,9.76-18.37.49.05,1.64.41,2.13.46-.51,5.12-5,10.89-6.34,17.21,3.55-3.85,5.87-6.93,8.5-9.59s6.42-4.08,9.87-5.7c5.82-2.73,9.29-7.69,12.58-12.8,1-1.52,1.23-3.48-1.27-4.26a243.91,243.91,0,0,0-24,16.72c-.53-.45-1.05-.87-1.51.07-13.12.06-26.23.2-39.35.15s-26.05,2.71-38.46,6.64c-4.83,1.53-9.59,4.51-14.29,7a5.06,5.06,0,0,0-2.19,2.1c-2.73,5.88-9,9.88-9.15,17.18a5.65,5.65,0,0,1-1.69,3.36,15.08,15.08,0,0,0-4.11,13.46c2,12.27-5,20.17-13.4,27.13-5.07,4.18-8.74,6.62-15.59,11.32-15.29,10.82-33.34,9.74-50.22,12.15-10.6,1.51-19.53,6.49-27.36,14a44.42,44.42,0,0,0-11.15,15.71c-4.17-2.87-4.32-6.84-3.05-9.75,4-9.17,4.69-19,5-28.52.33-11,2.1-21.69,3.88-32.45.87-5.28,9-20.5,13.06-24.31a27.51,27.51,0,0,0,2.28-3.65c5.7-8.41,14.89-14.78,23.67-21.74,10.93-8.66,22.83-8.77,34.77-4.61a40.41,40.41,0,0,1,19.94,15c6.67-5.86,14.52-10.35,21.72-15.76,4.39-3.29,10.08-3.35,15-5.69a60.39,60.39,0,0,1,21.19-5.67c1-.08,2-.67,3-.62,11.29.54,22.41-2.09,33.79-1.33,9.33.62,18.77-.41,28.73-.72-6.8-3-13.49-4.32-19.59-7.72-5.49-3-12-4.17-19.54-4,4.14-3.63,7.48-3.85,12-3,17.1,3.33,34.29,6.39,51.83,2.81,3.24-.66,6.49-.51,9.7-2.11l1,1.19-2.5,1.82c1.88.45,2.05,3,4.58,3.11,4.7-4.1,11.09-6.57,15-12.3a14.63,14.63,0,0,1,4.32-4.37c1.32-.87,1.85-1.6,3.85-3.59,4-5.53,6.87-7.89,11-11.41.36-2.14.74-4.35,1.14-6.65-3.13.08-4.56,2.37-6.42,4l-1.22-1c1.67-3.21,3.95-4.1,7.83-6,2.59-1.25,3-2.24,5-4.15s3.35-3.6,6.16-3.21a8.42,8.42,0,0,1-3.74,5.38c-5.63,3.68-6,9-3.86,15,1.33-8.3,10.08-11,13.41-17.63-1.67-2.06-3.15-3.47-9.09-2.13.23-1.86,4.69-3.6,6.49-2.95,2.61.94,5,2.41,7.78,2.16.65,2.52-.11,3.83-1.86,4.89-7.08,4.27-10.24,11.6-14.07,18.38-1.33,2.36-.87,5-.61,7.52.13,1.25-.37,2.92-.21,4.17.39,3-3,20-5,23.4-2.16-.54-.08-4.39.49-7.06,3.34-8.79.86-14.39.57-23.49-.07-2.2-1.13-4.37-1.72-6.48a7.36,7.36,0,0,0-5.72,3.88c-.75,1.33-1.22,3-2.28,4-6.05,5.76-11.79,12-18.52,16.86s-12.42,11.05-18.47,16.72c-1.24,1.17-2.18,2.57-3.75,3.59-6.34,4.12-10.9,6.35-15.43,10.82a1.86,1.86,0,0,0-.54.22c-.09.06-.1.24-.14.37l.61-.66c3.32,0,6.64,0,9.95-.14,6.59-.35,10.31,2.52,13.86,8.38,5.85,9.69,5,19.32,2.8,29.27-.91,4.05-3,7.87-4.78,11.7-3.81,8.2-20.47,27.4-26.73,33.86-.94-4.82,12.67-19.38,15.26-22.23,4.39-4.84,8.4-9.86,10.21-15.25,2-6,.22-6.69,1.33-13.95a61,61,0,0,0-.15-9.51c-1.56-4.58-1.64-4.53-3.18-10-.64-2.29-2.25-6.44-4.62-6.77-6.33-.88-10.89-3.23-17-.39-5.19,2.41-5,9.65-10.72,11.86-1.65.63-3.71,6.28-4.24,8.32-2.34,8.82-.85,14.65.69,23.58,1.05,6.1,1.61,12.36,0,18.3a31.07,31.07,0,0,0,0,15.12c1,4.58,1.33,9.11-.21,13.61a10.64,10.64,0,0,0-.22,6.51c1.81-7.36,2.59-12.52,8.29-17.2a16.3,16.3,0,0,0,3.08-4.21C488.5,536.4,509.35,512.36,514.06,510.19ZM265.67,563.78l1.54-1.56c3.29.3,4.63-3.38,7.17-4,4.55-2.69,8.69-6.84,13.58-8.05,7.6-1.89,15.45-3.54,23.43-3.6,6.47,0,12.51-2.5,18.75-3.76,3.77-.76,6.73-4.11,10.75-5.39,9.25-3,17-8.83,24.77-14.48a17,17,0,0,0,4.17-4.48c2-3.18,3.73-6.54,5.8-9.73,1.77-2.74,2.23-6.93-.83-9.83-1.83-1.74-3.26-3.33-2-5.92,1-2.15-.44-3.38-1.62-4.67-1.55-1.7-3.57-3.07-4.78-5-1.94-3-4.33-2.95-7.74-2.15a11.63,11.63,0,0,1-3.54,9.08c-2.84,3-4.72,6.51-7.21,9.66-3.6,4.55-6.5,9.43-11.5,13-4.73,3.4-7.87,8.35-13.83,11.09-5.58,2.57-11.89,5.8-15.48,11.78-.8,1.32-2.49,1.59-3.94,2.16-3.95,1.54-8.6.07-12,1.81s-6,5.58-9.84,6.79c-7.34,2.28-9.28,9.49-13.92,14.2-.27.27-.1,1-.13,1.5l-1.56,1.55m72.66-57c.85-.36,1.62-.3,1.82-1.56,0-.23-.29-.84-.51-.74-1.28.55-1.13.85-1.93,1.57-.52.53-.85,1.23-1.64,1.62-2.78.83-3.71,4.24-6.8,2.61.41-2.89,1.09-5.33,1.47-8a6.72,6.72,0,0,0,.09-.75,6.09,6.09,0,0,0-1.19.79,7.55,7.55,0,0,0-3.78,3.52,67.18,67.18,0,0,1-16.75,20.52c-3.52,2.85-6.05,6.77-11.23,7.14a3.61,3.61,0,0,0-3.27,3.72c5.78.38,9.92-2.46,13.23-6.48,1.47-1.78,2.57-3.62,4.82-4.66,9.22-4.26,17.28-9.17,23.61-17.34C336.84,508.28,337.86,507.34,338.38,506.82ZM322.81,479c2.21-.76,5,.7,7.73-2.38-3.29.94-5.94.16-7.71,2.41l-1.94.67C322,480.23,322.32,479.51,322.81,479Zm42.06-5.6c6-1.63,9.85-7.13,15.73-9.05,1.22-.4,2-2.22,2.9-3.48,1.34-1.91,2.57-3.91,4-6.13-1,.25-2,.2-2.38.65a34.28,34.28,0,0,1-11.8,8.26c-4,1.86-7.92,4.1-9.45,8.51-.44.65-.6,1.05-1.39,1.25C363.59,474,364.39,474,364.87,473.42Zm18.64,1.75c4.41-10.95,16.4-18.53,25.19-21.73,6.85-2.49,37.31-5.7,45.08-5.81,2.66,0,5,.29,7.68.46,9.56.63,18.56-1.62,27.58-4.15.72-.21,1.9-.14,1.94-1.6-9.2-.63-17,.61-26.69.48-.24,0-2.07-.13-2.31-.06-7.05.31-12.48.51-19.12.78-8.43.34-17-.67-25.2,1.83-5.27,1.61-10.25,4.44-15.85,4.54-4.74.09-7.5,2.86-10.15,6-1,1.16-1.29,3.2-2.45,3.81C383,463,382.84,468.44,383.51,475.17ZM379.57,470c-6.1,1.23-11.2,4.43-17.26,7,7.32.76,11.54,10.95,17.35,13.67C384.34,483.64,378.67,475.76,379.57,470Zm-69.84,19.31c2.91-.41,3.72-1.42,2.89-3.5C310.38,485.94,310.3,487.53,309.73,489.35Zm26.76-12.42c2.27.06,4.29,1,6.36-.39C340.69,476.34,338.7,475.89,336.49,476.93Z" transform="translate(-69.88 -13.57)"/><path d="M479.26,592.67c1.7,1.54,1.63,3.23-.07,4.53a3.32,3.32,0,0,1-4.8-.61,4.58,4.58,0,0,1-1.45-2.66c.27-6.17-3.37-10.88-5.75-16.15-2.5-5.51-3.85-9.07-7.64-13.25a51.64,51.64,0,0,1-4.12-4.35c-8-12-15.11-24.82-17.81-39.37A72.77,72.77,0,0,1,439.16,489a10.3,10.3,0,0,1,3.51-5.83c.37.32.74.65,1.12,1-5.67,15-6.87,30-.5,45.3,1.44,3.45,4.5,5.46,5.63,8.89a77.8,77.8,0,0,0,12.54,23.85c6.32,8.15,11.87,17.43,14.23,27.94l-.07-.13a16.84,16.84,0,0,0,.44,2.77c.37,1.2.93,2.34,2.22.65C478.61,593.14,478.94,592.91,479.26,592.67Z" transform="translate(-69.88 -13.57)"/><path d="M518.39,426.1c4.63-4.21,14.15-11,19.59-19.31,2-2.76,9.32-8.3,11.79-11,.31.31,1.19.85,1.49,1.16-2.07,3.71-11,9.9-13.12,13.43-3,5-14.83,15.67-19.09,17.13C518.67,427.13,518.22,426.81,518.39,426.1Z" transform="translate(-69.88 -13.57)"/><path class="cls-32" d="M493.78,532.59c-3,3.82-2.79,3-6.66,8-.76,1-2.22,3.54-3.2,4.33-5.7,4.68-7.28,10.41-9.09,17.77a38.73,38.73,0,0,1-1-6.35c-.48-4.33.82-9.1-.18-13.67-1.09-5-.76-9.38-.76-14.76,0-6.27.32-10.28-.73-16.38-1.54-8.93-2.49-12.5-.15-21.32.54-2,4.66-12,6.31-12.61,2.87-2.49,4.34-5.67,5.95-8.42a18.58,18.58,0,0,1,5.88-5.58c6-3.17,10.11,1.3,16.44,2.18,2.37.33,4.14,3.61,4.81,5.9,1.41,4.79,2.68,5.65,3,10.91.1,1.74.28,4,.26,5.79-.06,6,1.58,5.31-.69,16-1.32,6.23-7.6,13-12,17.84a47,47,0,0,0-5.7,7.07Z" transform="translate(-69.88 -13.57)"/><path class="cls-12" d="M259.72,575.45c-.27-.42.12-4.34,1.68-8a25.87,25.87,0,0,1,3.73-5.63c3.54-5.35,8.86-13,16.2-15.27,3.85-1.21,6.44-5,9.84-6.79s8-.27,12-1.81c1.45-.57,3.14-.84,3.94-2.16,3.59-6,9.9-9.21,15.48-11.78,6-2.74,9.1-7.69,13.83-11.09,5-3.61,7.9-8.49,11.5-13,2.49-3.15,4.37-6.7,7.21-9.66a11.63,11.63,0,0,0,3.54-9.08c3.41-.8,5.8-.88,7.74,2.15,1.21,1.9,3.23,3.27,4.78,5,1.18,1.29,2.65,2.52,1.62,4.67-1.25,2.59.18,4.18,2,5.92,3.06,2.9,2.6,7.09.83,9.83-2.07,3.19-3.78,6.55-5.8,9.73a17,17,0,0,1-4.17,4.48c-7.77,5.65-15.52,11.52-24.77,14.48-4,1.28-7,4.63-10.75,5.39-6.24,1.26-12.28,3.71-18.75,3.76-8,.06-15.83,1.71-23.43,3.6-4.89,1.21-9,5.36-13.58,8.05-2.36,1.4-7.05,5.56-8.83,8.88Z" transform="translate(-69.88 -13.57)"/><path class="cls-12" d="M273.34,536.14c-3.86,2.43-5.44,6.49-6.24,10.48a57.85,57.85,0,0,1-2.66,9.58c2.65-10.23.76-20.76,2.65-31.11,1.82-10,4.75-17.38,7.69-27a50.58,50.58,0,0,1,2.56-5c5.59-6.05,3.94-7.4,13.81-18.18,1.51-1.35,2.59-2.64,5.1-4.76,7.31-6.21,13.17-9.27,23.07-14,4.51-2.64,10-2.37,15-.51a83.74,83.74,0,0,1,19.93,10.83c1.74,1.26,2.81,3,1.7,5.64-7.15,2.43-14.87,1.53-22.38,2.08-10.52.77-19.78,3.39-27.12,11.7-2.7,3.06-7.21,4.48-10.72,6.9-4.56,3.14-9,7.44-6.75,13.62-1.76,4.53-6.61,3-6.19,8l-.14.17c-1.91,2-6.87,4.51-6.15,8.78.45,2.64-.86,4.19-1.28,6.25s-2.61,3.88-1.7,6.37Z" transform="translate(-69.88 -13.57)"/><path class="cls-33" d="M332.9,505.68c.17-2,1.32-6,0-8.25-5.25,1.78-9,4.56-11.58,9.88-4.49,9.42-14.3,17.08-23.67,22.5-3.89,2.26-8.27,4.75-11.24,8.63-2.49,3.26-5.13,6.26-9.42,7.37-2.45.63-6.44,8.18-9.26,9-.4-5.06,4.34-13.68,6.27-18.64l2.53-3.54a63.47,63.47,0,0,1,6.16-9.56l-3.29-1.46c1.82-2.14,2.13-2.41,5-5.68l2.69-2.42c3.23-2.6,1.9-1.95,5.29-5.82.94-1.08.18,0,1-1.93,2.92-7,1.5-7.77,13.8-12.69a45.6,45.6,0,0,1,6.68-1.66c3.57-.82,5.2-2.62,7.94-6.07,2.58-3.24,7.91-5.15,12.39-5.82,7.61-1.12,15.11-1.88,23.88-3.69-2.82,4.3-3.1,8.71-7.1,11.22a5.61,5.61,0,0,0-2.14,3.1c-2.09,7.92-7.54,12.57-14.4,15.06Z" transform="translate(-69.88 -13.57)"/><path class="cls-17" d="M383.51,475.17c-.67-6.73-.48-12.15,5.7-15.42,1.16-.61,1.48-2.65,2.45-3.81,2.65-3.17,5.41-5.94,10.15-6,5.6-.1,10.58-2.93,15.85-4.54,8.19-2.5,16.77-1.49,25.2-1.83,6.64-.27,10.31-.35,17.12-1,.24-.07,5.1.37,5.34.37,9.91,0,16.46-1.24,25.66-.61,0,1.46-1.22,1.39-1.94,1.6-9,2.53-18,4.78-27.58,4.15-2.67-.17-5.44-.44-8.11-.4-7.76.11-37.8,3.26-44.65,5.75C399.91,456.64,387.92,464.22,383.51,475.17Z" transform="translate(-69.88 -13.57)"/><path class="cls-20" d="M475.52,473.63l1-1.16a8.82,8.82,0,0,1,3.19-.25l-.5.35a26.43,26.43,0,0,0-5.05,9.41,52,52,0,0,1-2.64,6.61c-.12.26-.62,2.13-1.27,4.64a42.67,42.67,0,0,0-1,8.53c0,1-.12,2.33.43,3,.29,8,.88,12.43,1.41,17.61.34,3.2-.13,3.22,0,9.48.1,4.46-.84,6.33-.47,9.84.48,4.56,1,10.54,1.59,15.62.24,2.13,2.47,22.29,4.55,34.86-1.59-6.12-8.24-37.25-8.16-41.37.05-3-.33-12.55-.95-17.78-.55-4.72-1-7.37-1.67-12.34-.74-5.53-.18-12,.06-17.86.42-10.3,1.34-14.26,5.23-23.26l1.45-2.51c.36-.42.26-.36,1.13-1.43l.86-.89" transform="translate(-69.88 -13.57)"/><path class="cls-17" d="M545.22,402.86c.82-.8,2.7-2.34,3.24-2.84a13.77,13.77,0,0,0,2-2.14c1.86-1.61,3.29-3.9,6.42-4-.4,2.3-.78,4.51-1.14,6.65-4.17,3.52-6.15,6.15-10.32,10.52-.57,1.54-3.14,3-4.57,4.48-1.62,1.61-3.07,2.55-4.32,4.37-3.94,5.73-10.33,8.2-15,12.3-2.53-.13-2.7-2.66-4.58-3.11l2.5-1.82c3-1.19,4.59-2.79,7.37-5.92,4.48-4,8.4-6,11.38-11C540.24,406.86,542.26,406.22,545.22,402.86Z" transform="translate(-69.88 -13.57)"/><path class="cls-34" d="M490.12,449a229.11,229.11,0,0,1,23.4-16c2.5.78,2.25,2.74,1.27,4.26-3.29,5.11-6.76,10.07-12.58,12.8-3.45,1.62-7.3,3.09-9.87,5.7s-4.95,5.74-8.5,9.59c1.31-6.32,3.65-10.8,5.28-14.91Z" transform="translate(-69.88 -13.57)"/><path class="cls-18" d="M340.68,505.62c-6.32,8.16-18.69,16.7-28,20.51-2.25,1-3.35,2.88-4.82,4.66-3.31,4-7.45,6.86-13.23,6.48a3.61,3.61,0,0,1,3.27-3.72c5.18-.37,7.71-4.29,11.23-7.14a67.18,67.18,0,0,0,16.75-20.52,9.24,9.24,0,0,1,4.15-3.94l.82-.37c-.38,2.66-1.15,5.85-1.56,8.74,3.09,1.63,8.74-6.6,11.48-6Z" transform="translate(-69.88 -13.57)"/><path class="cls-35" d="M459.08,428.18c10.86,2.81,36.79,2.77,47.77,3.4-2.2,3.76-5.29,6.24-9.33,8.38-8-1.79-17.77-3-26.52-6.85Z" transform="translate(-69.88 -13.57)"/><path class="cls-36" d="M568.33,383.44c2,.44,6.23.68,7.5,2.94-2.71,2.45-8.81,9.11-11.79,14.18-3.64,6.19-3.69,13.65-3,18.51-.93-8.93-4.22-24,.65-28.65,1.95-1.86,4.59-5,6.5-6.89Z" transform="translate(-69.88 -13.57)"/><path class="cls-12" d="M362.5,473.43c.28-3.7,6.82-7.9,10.84-9.76a34.28,34.28,0,0,0,11.8-8.26c.4-.45,1.38-.4,2.38-.65-1.45,2.22-2.68,4.22-4,6.13-.87,1.26-1.68,3.08-2.9,3.48-5.88,1.92-9.64,8.46-17,9.68Z" transform="translate(-69.88 -13.57)"/><path class="cls-21" d="M291.07,499.66c1.1-.37,20.9-16,23.9-17.65,1-.55,3.38-2.63,6.41-3.62,4.55-1.47,10-3.88,13.38-2.79-.44.38-.14,1.07-2.3,1.33-1.79.23-6.75,3.56-8.53,4.8-2.88,2-6.11,4.13-8.78,5.71-2,1.19-3.24,1.22-5.67,2.43-3.46,1.73-11.84,7.05-15.46,9.05C291.05,500.56,291.75,499.4,291.07,499.66Z" transform="translate(-69.88 -13.57)"/><path class="cls-21" d="M329.59,475.84a14.35,14.35,0,0,1,5.79-.46c1.44.09,3.32.08,4.58.22s2.3.89,2.89.94a5.9,5.9,0,0,1-3.84,1.15c-1.51-.07-3.75-.22-5.23-.4C332.05,477.08,330.36,475.86,329.59,475.84Z" transform="translate(-69.88 -13.57)"/><path class="cls-18" d="M474.1,431.28l0,0-4.94-.34" transform="translate(-69.88 -13.57)"/><path class="cls-18" d="M338.29,506.8c.29-.88.14-2.07,1.4-2.28.23,0,.86.56.82.79-.2,1.27-1.43,1.08-2.28,1.43Z" transform="translate(-69.88 -13.57)"/><path class="cls-18" d="M492.61,460.5l-.61.66c0-.13.05-.31.14-.37a1.86,1.86,0,0,1,.54-.22Z" transform="translate(-69.88 -13.57)"/><path class="cls-18" d="M336.75,508.37l1.54-1.57-.06-.06-1.56,1.55Z" transform="translate(-69.88 -13.57)"/><path class="cls-18" d="M267.21,562.22l-1.54,1.56.05.06,1.56-1.55Z" transform="translate(-69.88 -13.57)"/><path d="M282.61,514.57c.41,3-.92,5.23-3.19,7,1,.43,2.76-.85,3.29,1.46-2.95,4.74-10.63,17.16-15.08,22.67-.91-2.49,7.11-14,7.55-16.14s1.73-3.61,1.28-6.25C275.74,519.08,281,515.44,282.61,514.57Z" transform="translate(-69.88 -13.57)"/><path d="M475.6,472.92" transform="translate(-69.88 -13.57)"/><path d="M472.62,475.9" transform="translate(-69.88 -13.57)"/><path d="M294.22,75.33" transform="translate(-69.88 -13.57)"/><path class="cls-18" d="M471.64,475.15l1.58-1.32a4.64,4.64,0,0,1,2.06-.95l-5.65,6.86a69.88,69.88,0,0,0-3.48,12.93c-.79,4.65-1.92,12.44-1.58,16.89.07,1-.46,4.59-.11,5.22a71,71,0,0,0-.13,9.66c.48,3.17,1.09,3.8,1.89,10.3.28,2.28.53,5.65.87,7.4.91,4.76-.19,10.82.64,14.41.74,3.22,2,13.89,4.3,23.34,1.46,6,4.14,10.82,4.8,15.16-1-.87-4.22-8.33-6.31-16.14a83,83,0,0,1-1.69-9.87c-1-6.95-2.59-12.71-2.48-14.57-.25-3-2-13-2-18.25-.06-4.68-1.58-10.84-1.72-15.83-.17-5.62.61-8.87.81-14.74.37-11.19,2-14.78,3.74-23.75l1.32-2.79c.08-.49.12-.36.85-1.27l1-1.51" transform="translate(-69.88 -13.57)"/><path class="cls-37" d="M486.18,79.18c-3.15-1.79-3.79-2.16-4.25-2.35-.77-.31-.55,0-3.92-1.15-.82-.28,7.82-2.6,8.6-2.3,1.59.61,2.71,1.15,6.38,2.74,4,1.76,12.94,5.88,18.43,11.5,6.84,7,15.68,21.37,15.72,21.49s-20.23-18.63-24.8-21.64c-1.34-.87-4.22-2.93-5.79-3.28C491.49,83.05,486.18,79.18,486.18,79.18Z" transform="translate(-69.88 -13.57)"/><path class="cls-38" d="M511.26,87.54c6.84,7,15.68,21.37,15.72,21.49s-20.23-18.63-24.8-21.64c-1.34-.87-4.22-3-5.79-3.29C490.09,82.78,505.77,81.92,511.26,87.54Z" transform="translate(-69.88 -13.57)"/><path class="cls-38" d="M275.51,209.32c8.26,5.26,15.09,16.32,15.15,16.43s-21.34-15.54-26.1-18c-.54-.27-3.9-1.55-6.63-2.95-4.49-2.31-19-10-19.6-10.31a9.06,9.06,0,0,1-.92-.49c.36,0,14.12,4.43,22.06,7.63A145.2,145.2,0,0,1,275.51,209.32Z" transform="translate(-69.88 -13.57)"/><path class="cls-37" d="M207.29,196.89c-3.62-.08-7.58.14-8.08.19a26.51,26.51,0,0,0-4.37.5c-.85.14,10.81-3.76,11.63-3.87,1.7-.22,16.23-5.74,20.18-5.13,4.27.66,4.08,2.63,11.2,5.62a172.58,172.58,0,0,1,20.08,10.61s-23.17-5.77-28.63-6.24c-1.59-.13-10.73-1.76-12.91-1.72C211.21,197,207.29,196.89,207.29,196.89Z" transform="translate(-69.88 -13.57)"/><path class="cls-39" d="M211.49,330.94a13.38,13.38,0,0,0-6-6.07,17.09,17.09,0,0,1-7.94-8.22c-.87-1.83.68-1.82.21-3.84a9.54,9.54,0,0,1,.2-4.26,30.14,30.14,0,0,0,3.22,5.54c3.37,5.21,7.43,7.79,15.27,19C217.13,334.06,211.68,331.34,211.49,330.94Z" transform="translate(-69.88 -13.57)"/></svg>